<svg width="32" height="32" viewBox="0 0 32 32" fill="none" xmlns="http://www.w3.org/2000/svg">
  <defs>
    <linearGradient id="rekall-gradient" x1="0%" y1="0%" x2="100%" y2="100%">
      <stop offset="0%" style="stop-color:#ff0040;stop-opacity:1" />
      <stop offset="50%" style="stop-color:#00d4ff;stop-opacity:1" />
      <stop offset="100%" style="stop-color:#ff0040;stop-opacity:1" />
    </linearGradient>
    <filter id="glow">
      <feGaussianBlur stdDeviation="1.5" result="coloredBlur"/>
      <feMerge> 
        <feMergeNode in="coloredBlur"/>
        <feMergeNode in="SourceGraphic"/>
      </feMerge>
    </filter>
  </defs>
  
  <!-- Rekall "R" shape with movie-accurate styling -->
  <path d="M6 4L6 28L10 28L10 18L16 18L20 28L24 28L19 17C21 16 22 14 22 11C22 7 19 4 16 4L6 4Z M10 8L16 8C17 8 18 8 18 11C18 12 17 14 16 14L10 14L10 8Z" 
        fill="url(#rekall-gradient)" 
        filter="url(#glow)"/>
  
  <!-- Movie-style tech frame -->
  <rect x="4" y="2" width="24" height="1" fill="#ff0040" opacity="0.8"/>
  <rect x="4" y="29" width="24" height="1" fill="#ff0040" opacity="0.8"/>
  <rect x="2" y="4" width="1" height="24" fill="#00d4ff" opacity="0.6"/>
  <rect x="29" y="4" width="1" height="24" fill="#00d4ff" opacity="0.6"/>
  
  <!-- Corner brackets like in the movie -->
  <path d="M2 2L2 6L6 6" stroke="#ff0040" stroke-width="1" fill="none" opacity="0.9"/>
  <path d="M26 2L30 2L30 6" stroke="#ff0040" stroke-width="1" fill="none" opacity="0.9"/>
  <path d="M2 26L2 30L6 30" stroke="#00d4ff" stroke-width="1" fill="none" opacity="0.9"/>
  <path d="M26 30L30 30L30 26" stroke="#00d4ff" stroke-width="1" fill="none" opacity="0.9"/>
  
  <!-- Central glow effect -->
  <circle cx="16" cy="16" r="12" fill="none" stroke="#ff0040" stroke-width="0.5" opacity="0.2"/>
</svg> 