<svg width="32" height="32" viewBox="0 0 32 32" fill="none" xmlns="http://www.w3.org/2000/svg">
  <defs>
    <linearGradient id="rekall-gradient" x1="0%" y1="0%" x2="100%" y2="100%">
      <stop offset="0%" style="stop-color:#ff0040;stop-opacity:1" />
      <stop offset="50%" style="stop-color:#00d4ff;stop-opacity:1" />
      <stop offset="100%" style="stop-color:#ff0040;stop-opacity:1" />
    </linearGradient>
    <filter id="glow">
      <feGaussianBlur stdDeviation="1.5" result="coloredBlur"/>
      <feMerge> 
        <feMergeNode in="coloredBlur"/>
        <feMergeNode in="SourceGraphic"/>
      </feMerge>
    </filter>
  </defs>
  
  <!-- Rekall "R" shape -->
  <path d="M8 6L8 26L12 26L12 18L18 18L22 26L26 26L21 17C23 16 24 14 24 11C24 7 21 6 18 6L8 6Z M12 10L18 10C19 10 20 10 20 11C20 12 19 14 18 14L12 14L12 10Z" 
        fill="url(#rekall-gradient)" 
        filter="url(#glow)"/>
  
  <!-- Tech lines -->
  <rect x="6" y="4" width="20" height="1" fill="#ff0040" opacity="0.8"/>
  <rect x="6" y="27" width="20" height="1" fill="#ff0040" opacity="0.8"/>
  <rect x="4" y="6" width="1" height="20" fill="#00d4ff" opacity="0.6"/>
  <rect x="27" y="6" width="1" height="20" fill="#00d4ff" opacity="0.6"/>
  
  <!-- Corner accents -->
  <rect x="4" y="4" width="3" height="3" fill="none" stroke="#ff0040" stroke-width="1" opacity="0.7"/>
  <rect x="25" y="4" width="3" height="3" fill="none" stroke="#ff0040" stroke-width="1" opacity="0.7"/>
  <rect x="4" y="25" width="3" height="3" fill="none" stroke="#00d4ff" stroke-width="1" opacity="0.7"/>
  <rect x="25" y="25" width="3" height="3" fill="none" stroke="#00d4ff" stroke-width="1" opacity="0.7"/>
</svg> 